<svg xmlns="http://www.w3.org/2000/svg" viewBox="0 0 1200 675"><defs><linearGradient id="g" x2="1" y2="1"><stop stop-color="#0f2030"/><stop offset="1" stop-color="#315e80"/></linearGradient></defs><rect width="1200" height="675" fill="url(#g)"/><g fill="#253545"><rect x="100" y="240" width="120" height="300"/><rect x="270" y="150" width="130" height="390"/><rect x="450" y="210" width="120" height="330"/><rect x="620" y="110" width="145" height="430"/><rect x="820" y="190" width="130" height="350"/><rect x="1000" y="255" width="100" height="285"/></g><g fill="#ffd15c"><rect x="130" y="300" width="18" height="28"/><rect x="168" y="300" width="18" height="28"/><rect x="300" y="300" width="18" height="28"/><rect x="338" y="300" width="18" height="28"/><rect x="480" y="300" width="18" height="28"/><rect x="518" y="300" width="18" height="28"/><rect x="650" y="300" width="18" height="28"/><rect x="688" y="300" width="18" height="28"/><rect x="850" y="300" width="18" height="28"/><rect x="888" y="300" width="18" height="28"/><rect x="1030" y="300" width="18" height="28"/><rect x="1068" y="300" width="18" height="28"/></g><rect y="550" width="1200" height="125" fill="#05080d" opacity=".96"/><text x="55" y="58" fill="#19a8ff" font-family="Arial,sans-serif" font-size="30" font-weight="800">ROTTERDAM</text><text x="55" y="612" fill="#fff" font-family="Arial,sans-serif" font-size="58" font-weight="900">PARKEREN</text><text x="58" y="652" fill="#19a8ff" font-family="Arial,sans-serif" font-size="28" font-weight="800">STAD</text></svg>